<svg width="39" height="39" viewBox="0 0 39 39" fill="none" xmlns="http://www.w3.org/2000/svg">
<g filter="url(#filter0_d_1_62)">
<circle cx="19.5" cy="15.5" r="15" fill="#474747" stroke="black"/>
<path d="M27 16.5C27 19.5376 24.5376 22 21.5 22C20.0023 22 18.7517 21.3235 17.8679 20.4036C17.3216 19.8349 16.9326 19.1918 16.7124 18.5859C19.0842 19.9217 21.4955 19.4616 22.9786 17.9786C24.4616 16.4955 24.9217 14.0842 23.5859 11.7124C24.1918 11.9326 24.8349 12.3216 25.4036 12.8679C26.3235 13.7517 27 15.0023 27 16.5Z" fill="#F9D266" stroke="black"/>
<mask id="path-3-inside-1_1_62" fill="white">
<path d="M25 8C23 8 23 8 23 11C23 8 23 8 21 8C23 8 23 8 23 5C23 8 23 8 25 8Z"/>
</mask>
<path d="M25 8C23 8 23 8 23 11C23 8 23 8 21 8C23 8 23 8 23 5C23 8 23 8 25 8Z" fill="white"/>
<path d="M25 7C24.5362 7 24.062 6.99672 23.6794 7.06049C23.2486 7.13228 22.754 7.31627 22.418 7.8203C22.1377 8.24061 22.0665 8.75284 22.034 9.19176C21.9993 9.65948 22 10.2664 22 11H24C24 10.2336 24.0007 9.71553 24.0285 9.3395C24.0585 8.93466 24.1123 8.8844 24.082 8.92971C23.996 9.05874 23.8764 9.05523 24.0081 9.03327C24.188 9.00329 24.4638 9 25 9V7ZM24 11C24 10.2664 24.0007 9.65948 23.966 9.19176C23.9335 8.75284 23.8623 8.24061 23.582 7.8203C23.246 7.31627 22.7514 7.13228 22.3206 7.06049C21.938 6.99672 21.4638 7 21 7V9C21.5362 9 21.812 9.00329 21.9919 9.03327C22.1236 9.05523 22.004 9.05874 21.918 8.92971C21.8877 8.8844 21.9415 8.93466 21.9715 9.3395C21.9993 9.71553 22 10.2336 22 11H24ZM21 9C21.4638 9 21.938 9.00329 22.3206 8.93952C22.7514 8.86773 23.246 8.68374 23.5821 8.1797C23.8623 7.7594 23.9335 7.24716 23.966 6.80825C24.0007 6.34052 24 5.73363 24 5H22C22 5.76637 21.9993 6.28448 21.9715 6.66051C21.9415 7.06534 21.8877 7.11561 21.9179 7.0703C22.004 6.94127 22.1236 6.94478 21.9919 6.96674C21.812 6.99672 21.5362 7 21 7V9ZM22 5C22 5.73363 21.9993 6.34052 22.034 6.80825C22.0665 7.24716 22.1377 7.7594 22.4179 8.1797C22.754 8.68374 23.2486 8.86773 23.6794 8.93952C24.062 9.00329 24.5362 9 25 9V7C24.4638 7 24.188 6.99672 24.0081 6.96674C23.8764 6.94478 23.996 6.94127 24.0821 7.0703C24.1123 7.11561 24.0585 7.06534 24.0285 6.66051C24.0007 6.28448 24 5.76637 24 5H22Z" fill="black" mask="url(#path-3-inside-1_1_62)"/>
<mask id="path-5-inside-2_1_62" fill="white">
<path d="M18 13C16 13 16 13 16 15C16 13 16 13 14 13C16 13 16 13 16 11C16 13 16 13 18 13Z"/>
</mask>
<path d="M18 13C16 13 16 13 16 15C16 13 16 13 14 13C16 13 16 13 16 11C16 13 16 13 18 13Z" fill="white"/>
<path d="M18 12C17.5244 12 17.083 11.9985 16.7333 12.0374C16.391 12.0754 15.9157 12.1701 15.5429 12.5429C15.1701 12.9157 15.0754 13.391 15.0374 13.7333C14.9985 14.083 15 14.5244 15 15H17C17 14.4756 17.0015 14.167 17.0251 13.9542C17.0496 13.734 17.0799 13.8343 16.9571 13.9571C16.8343 14.0799 16.734 14.0496 16.9542 14.0251C17.167 14.0015 17.4756 14 18 14V12ZM17 15C17 14.5244 17.0015 14.083 16.9626 13.7333C16.9246 13.391 16.8299 12.9157 16.4571 12.5429C16.0843 12.1701 15.609 12.0754 15.2667 12.0374C14.917 11.9985 14.4756 12 14 12V14C14.5244 14 14.833 14.0015 15.0458 14.0251C15.266 14.0496 15.1657 14.0799 15.0429 13.9571C14.9201 13.8343 14.9504 13.734 14.9749 13.9542C14.9985 14.167 15 14.4756 15 15H17ZM14 14C14.4756 14 14.917 14.0015 15.2667 13.9626C15.609 13.9246 16.0843 13.8299 16.4571 13.4571C16.8299 13.0843 16.9246 12.609 16.9626 12.2667C17.0015 11.917 17 11.4756 17 11H15C15 11.5244 14.9985 11.833 14.9749 12.0458C14.9504 12.266 14.9201 12.1657 15.0429 12.0429C15.1657 11.9201 15.266 11.9504 15.0458 11.9749C14.833 11.9985 14.5244 12 14 12V14ZM15 11C15 11.4756 14.9985 11.917 15.0374 12.2667C15.0754 12.609 15.1701 13.0843 15.5429 13.4571C15.9157 13.8299 16.391 13.9246 16.7333 13.9626C17.083 14.0015 17.5244 14 18 14V12C17.4756 12 17.167 11.9985 16.9542 11.9749C16.734 11.9504 16.8343 11.9201 16.9571 12.0429C17.0799 12.1657 17.0496 12.266 17.0251 12.0458C17.0015 11.833 17 11.5244 17 11H15Z" fill="black" mask="url(#path-5-inside-2_1_62)"/>
<mask id="path-7-inside-3_1_62" fill="white">
<path d="M22 14.5C20.5 14.5 20.5 14.5 20.5 16C20.5 14.5 20.5 14.5 19 14.5C20.5 14.5 20.5 14.5 20.5 13C20.5 14.5 20.5 14.5 22 14.5Z"/>
</mask>
<path d="M22 14.5C20.5 14.5 20.5 14.5 20.5 16C20.5 14.5 20.5 14.5 19 14.5C20.5 14.5 20.5 14.5 20.5 13C20.5 14.5 20.5 14.5 22 14.5Z" fill="white"/>
<path d="M22 13.5C21.6494 13.5 21.3017 13.4985 21.0224 13.5296C20.7504 13.5598 20.322 13.6388 19.9804 13.9804C19.6388 14.322 19.5598 14.7504 19.5296 15.0224C19.4985 15.3017 19.5 15.6494 19.5 16H21.5C21.5 15.6006 21.5015 15.3858 21.5173 15.2432C21.534 15.0933 21.5487 15.2405 21.3946 15.3946C21.2405 15.5487 21.0933 15.534 21.2432 15.5173C21.3858 15.5015 21.6006 15.5 22 15.5V13.5ZM21.5 16C21.5 15.6494 21.5015 15.3017 21.4704 15.0224C21.4402 14.7504 21.3612 14.322 21.0196 13.9804C20.678 13.6388 20.2496 13.5598 19.9776 13.5296C19.6983 13.4985 19.3506 13.5 19 13.5V15.5C19.3994 15.5 19.6142 15.5015 19.7568 15.5173C19.9067 15.534 19.7595 15.5487 19.6054 15.3946C19.4513 15.2405 19.466 15.0933 19.4827 15.2432C19.4985 15.3858 19.5 15.6006 19.5 16H21.5ZM19 15.5C19.3506 15.5 19.6983 15.5015 19.9776 15.4704C20.2496 15.4402 20.678 15.3612 21.0196 15.0196C21.3612 14.678 21.4402 14.2496 21.4704 13.9776C21.5015 13.6983 21.5 13.3506 21.5 13H19.5C19.5 13.3994 19.4985 13.6142 19.4827 13.7568C19.466 13.9067 19.4513 13.7595 19.6054 13.6054C19.7595 13.4513 19.9067 13.466 19.7568 13.4827C19.6142 13.4985 19.3994 13.5 19 13.5V15.5ZM19.5 13C19.5 13.3506 19.4985 13.6983 19.5296 13.9776C19.5598 14.2496 19.6388 14.678 19.9804 15.0196C20.322 15.3612 20.7504 15.4402 21.0224 15.4704C21.3017 15.5015 21.6494 15.5 22 15.5V13.5C21.6006 13.5 21.3858 13.4985 21.2432 13.4827C21.0933 13.466 21.2405 13.4513 21.3946 13.6054C21.5487 13.7595 21.534 13.9067 21.5173 13.7568C21.5015 13.6142 21.5 13.3994 21.5 13H19.5Z" fill="black" mask="url(#path-7-inside-3_1_62)"/>
<mask id="path-9-inside-4_1_62" fill="white">
<path d="M15 16C14 16 14 16 14 17C14 16 14 16 13 16C14 16 14 16 14 15C14 16 14 16 15 16Z"/>
</mask>
<path d="M15 16C14 16 14 16 14 17C14 16 14 16 13 16C14 16 14 16 14 15C14 16 14 16 15 16Z" fill="white"/>
<path d="M15 15C14.7744 15 14.5205 14.9985 14.3114 15.0217C14.1098 15.0441 13.7282 15.1076 13.4179 15.4179C13.1076 15.7282 13.0441 16.1098 13.0217 16.3114C12.9985 16.5205 13 16.7744 13 17H15C15 16.937 15 16.8807 15.0002 16.8284C15.0005 16.7763 15.0009 16.7308 15.0017 16.6903C15.0026 16.6498 15.0037 16.6168 15.0052 16.5896C15.0066 16.5622 15.0082 16.5438 15.0095 16.5323C15.0108 16.5206 15.0114 16.5199 15.0098 16.5273C15.0083 16.5346 15.0038 16.5546 14.9936 16.5829C14.9833 16.6117 14.9663 16.651 14.9394 16.6956C14.9259 16.7179 14.9102 16.741 14.8921 16.7643C14.8739 16.7876 14.8539 16.8103 14.8321 16.8321C14.8103 16.8539 14.7876 16.8739 14.7643 16.8921C14.741 16.9102 14.7179 16.9259 14.6956 16.9394C14.651 16.9663 14.6117 16.9833 14.5829 16.9936C14.5546 17.0038 14.5346 17.0083 14.5273 17.0098C14.5199 17.0114 14.5206 17.0108 14.5323 17.0095C14.5438 17.0082 14.5622 17.0066 14.5896 17.0052C14.6168 17.0037 14.6498 17.0026 14.6903 17.0017C14.7308 17.0009 14.7763 17.0005 14.8284 17.0002C14.8807 17 14.937 17 15 17V15ZM15 17C15 16.7744 15.0015 16.5205 14.9783 16.3114C14.9559 16.1098 14.8924 15.7282 14.5821 15.4179C14.2718 15.1076 13.8902 15.0441 13.6886 15.0217C13.4795 14.9985 13.2256 15 13 15V17C13.063 17 13.1193 17 13.1716 17.0002C13.2237 17.0005 13.2692 17.0009 13.3097 17.0017C13.3502 17.0026 13.3832 17.0037 13.4104 17.0052C13.4378 17.0066 13.4562 17.0082 13.4677 17.0095C13.4794 17.0108 13.4801 17.0114 13.4727 17.0098C13.4654 17.0083 13.4454 17.0038 13.4171 16.9936C13.3883 16.9833 13.349 16.9663 13.3044 16.9394C13.2821 16.9259 13.259 16.9102 13.2357 16.8921C13.2124 16.8739 13.1897 16.8539 13.1679 16.8321C13.1461 16.8103 13.1261 16.7876 13.1079 16.7643C13.0898 16.741 13.0741 16.7179 13.0606 16.6956C13.0337 16.651 13.0167 16.6117 13.0064 16.5829C12.9962 16.5546 12.9917 16.5346 12.9902 16.5273C12.9886 16.5199 12.9892 16.5206 12.9905 16.5323C12.9918 16.5438 12.9934 16.5622 12.9948 16.5896C12.9963 16.6168 12.9974 16.6498 12.9983 16.6903C12.9991 16.7308 12.9995 16.7763 12.9998 16.8284C13 16.8807 13 16.937 13 17H15ZM13 17C13.2256 17 13.4795 17.0015 13.6886 16.9783C13.8902 16.9559 14.2718 16.8924 14.5821 16.5821C14.8924 16.2718 14.9559 15.8902 14.9783 15.6886C15.0015 15.4795 15 15.2256 15 15H13C13 15.063 13 15.1193 12.9998 15.1716C12.9995 15.2237 12.9991 15.2692 12.9983 15.3097C12.9974 15.3502 12.9963 15.3832 12.9948 15.4104C12.9934 15.4378 12.9918 15.4562 12.9905 15.4677C12.9892 15.4794 12.9886 15.4801 12.9902 15.4727C12.9917 15.4654 12.9962 15.4454 13.0064 15.4171C13.0167 15.3883 13.0337 15.349 13.0606 15.3044C13.0741 15.2821 13.0898 15.259 13.1079 15.2358C13.1261 15.2124 13.1461 15.1897 13.1679 15.1679C13.1897 15.1461 13.2124 15.1261 13.2357 15.1079C13.259 15.0898 13.2821 15.0741 13.3044 15.0606C13.349 15.0337 13.3883 15.0168 13.4171 15.0064C13.4454 14.9962 13.4654 14.9917 13.4727 14.9902C13.4801 14.9887 13.4794 14.9892 13.4677 14.9905C13.4562 14.9918 13.4378 14.9934 13.4104 14.9948C13.3832 14.9963 13.3502 14.9974 13.3097 14.9983C13.2692 14.9991 13.2237 14.9995 13.1716 14.9998C13.1193 15 13.063 15 13 15V17ZM13 15C13 15.2256 12.9985 15.4795 13.0217 15.6886C13.0441 15.8902 13.1076 16.2718 13.4179 16.5821C13.7282 16.8924 14.1098 16.9559 14.3114 16.9783C14.5205 17.0015 14.7744 17 15 17V15C14.937 15 14.8807 15 14.8284 14.9998C14.7763 14.9995 14.7308 14.9991 14.6903 14.9983C14.6498 14.9974 14.6168 14.9963 14.5896 14.9948C14.5622 14.9934 14.5438 14.9918 14.5323 14.9905C14.5206 14.9892 14.5199 14.9887 14.5273 14.9902C14.5346 14.9917 14.5546 14.9962 14.5829 15.0064C14.6117 15.0168 14.651 15.0337 14.6956 15.0606C14.7179 15.0741 14.741 15.0898 14.7643 15.1079C14.7876 15.1261 14.8103 15.1461 14.8321 15.1679C14.8539 15.1897 14.8739 15.2124 14.8921 15.2358C14.9102 15.259 14.9259 15.2821 14.9394 15.3044C14.9663 15.349 14.9833 15.3883 14.9936 15.4171C15.0038 15.4454 15.0083 15.4654 15.0098 15.4727C15.0114 15.4801 15.0108 15.4794 15.0095 15.4677C15.0082 15.4562 15.0066 15.4378 15.0052 15.4104C15.0037 15.3832 15.0026 15.3502 15.0017 15.3097C15.0009 15.2692 15.0005 15.2237 15.0002 15.1716C15 15.1193 15 15.063 15 15H13Z" fill="black" mask="url(#path-9-inside-4_1_62)"/>
<mask id="path-11-inside-5_1_62" fill="white">
<path d="M20 9C19 9 19 9 19 10C19 9 19 9 18 9C19 9 19 9 19 8C19 9 19 9 20 9Z"/>
</mask>
<path d="M20 9C19 9 19 9 19 10C19 9 19 9 18 9C19 9 19 9 19 8C19 9 19 9 20 9Z" fill="white"/>
<path d="M20 8C19.7744 8 19.5205 7.99852 19.3114 8.02174C19.1098 8.04415 18.7282 8.10757 18.4179 8.41789C18.1076 8.72822 18.0441 9.10979 18.0217 9.31144C17.9985 9.52047 18 9.77443 18 10H20C20 9.93699 20 9.88071 20.0002 9.82842C20.0005 9.77626 20.0009 9.73081 20.0017 9.69033C20.0026 9.64978 20.0037 9.6168 20.0052 9.58956C20.0066 9.56219 20.0082 9.54385 20.0095 9.53231C20.0108 9.52062 20.0114 9.51995 20.0098 9.52729C20.0083 9.53464 20.0038 9.55457 19.9936 9.58286C19.9833 9.61167 19.9663 9.651 19.9394 9.69558C19.9259 9.71788 19.9102 9.74096 19.8921 9.76425C19.8739 9.78758 19.8539 9.81032 19.8321 9.83211C19.8103 9.8539 19.7876 9.87389 19.7643 9.89206C19.741 9.91019 19.7179 9.92588 19.6956 9.93937C19.651 9.96633 19.6117 9.98325 19.5829 9.99362C19.5546 10.0038 19.5346 10.0083 19.5273 10.0098C19.5199 10.0114 19.5206 10.0108 19.5323 10.0095C19.5438 10.0082 19.5622 10.0066 19.5896 10.0052C19.6168 10.0037 19.6498 10.0026 19.6903 10.0017C19.7308 10.0009 19.7763 10.0005 19.8284 10.0002C19.8807 10 19.937 10 20 10V8ZM20 10C20 9.77443 20.0015 9.52047 19.9783 9.31144C19.9559 9.10979 19.8924 8.72822 19.5821 8.41789C19.2718 8.10757 18.8902 8.04415 18.6886 8.02174C18.4795 7.99852 18.2256 8 18 8V10C18.063 10 18.1193 10 18.1716 10.0002C18.2237 10.0005 18.2692 10.0009 18.3097 10.0017C18.3502 10.0026 18.3832 10.0037 18.4104 10.0052C18.4378 10.0066 18.4562 10.0082 18.4677 10.0095C18.4794 10.0108 18.4801 10.0114 18.4727 10.0098C18.4654 10.0083 18.4454 10.0038 18.4171 9.99362C18.3883 9.98325 18.349 9.96633 18.3044 9.93937C18.2821 9.92588 18.259 9.91019 18.2357 9.89206C18.2124 9.87389 18.1897 9.8539 18.1679 9.83211C18.1461 9.81032 18.1261 9.78758 18.1079 9.76425C18.0898 9.74096 18.0741 9.71788 18.0606 9.69558C18.0337 9.651 18.0167 9.61167 18.0064 9.58286C17.9962 9.55457 17.9917 9.53464 17.9902 9.52729C17.9886 9.51995 17.9892 9.52062 17.9905 9.53231C17.9918 9.54385 17.9934 9.56219 17.9948 9.58956C17.9963 9.6168 17.9974 9.64978 17.9983 9.69033C17.9991 9.73081 17.9995 9.77626 17.9998 9.82842C18 9.88071 18 9.93699 18 10H20ZM18 10C18.2256 10 18.4795 10.0015 18.6886 9.97826C18.8902 9.95585 19.2718 9.89243 19.5821 9.58211C19.8924 9.27178 19.9559 8.89021 19.9783 8.68856C20.0015 8.47953 20 8.22557 20 8H18C18 8.06301 18 8.11929 17.9998 8.17158C17.9995 8.22374 17.9991 8.26919 17.9983 8.30967C17.9974 8.35022 17.9963 8.38321 17.9948 8.41044C17.9934 8.43781 17.9918 8.45615 17.9905 8.46769C17.9892 8.47938 17.9886 8.48005 17.9902 8.47271C17.9917 8.46536 17.9962 8.44544 18.0064 8.41714C18.0167 8.38833 18.0337 8.34901 18.0606 8.30442C18.0741 8.28213 18.0898 8.25904 18.1079 8.23575C18.1261 8.21242 18.1461 8.18969 18.1679 8.1679C18.1897 8.14611 18.2124 8.12611 18.2357 8.10795C18.259 8.08981 18.2821 8.07413 18.3044 8.06064C18.349 8.03367 18.3883 8.01675 18.4171 8.00638C18.4454 7.99619 18.4654 7.99169 18.4727 7.99017C18.4801 7.98865 18.4794 7.98919 18.4677 7.99049C18.4562 7.99178 18.4378 7.99337 18.4104 7.99482C18.3832 7.99628 18.3502 7.99743 18.3097 7.99826C18.2692 7.99908 18.2237 7.99954 18.1716 7.99977C18.1193 8 18.063 8 18 8V10ZM18 8C18 8.22557 17.9985 8.47953 18.0217 8.68856C18.0441 8.89021 18.1076 9.27178 18.4179 9.58211C18.7282 9.89243 19.1098 9.95585 19.3114 9.97826C19.5205 10.0015 19.7744 10 20 10V8C19.937 8 19.8807 8 19.8284 7.99977C19.7763 7.99954 19.7308 7.99908 19.6903 7.99826C19.6498 7.99743 19.6168 7.99628 19.5896 7.99482C19.5622 7.99337 19.5438 7.99178 19.5323 7.99049C19.5206 7.98919 19.5199 7.98865 19.5273 7.99017C19.5346 7.99169 19.5546 7.99619 19.5829 8.00638C19.6117 8.01675 19.651 8.03367 19.6956 8.06064C19.7179 8.07413 19.741 8.08981 19.7643 8.10795C19.7876 8.12611 19.8103 8.14611 19.8321 8.1679C19.8539 8.18969 19.8739 8.21242 19.8921 8.23575C19.9102 8.25904 19.9259 8.28213 19.9394 8.30442C19.9663 8.34901 19.9833 8.38833 19.9936 8.41714C20.0038 8.44544 20.0083 8.46536 20.0098 8.47271C20.0114 8.48005 20.0108 8.47938 20.0095 8.46769C20.0082 8.45615 20.0066 8.43781 20.0052 8.41044C20.0037 8.38321 20.0026 8.35022 20.0017 8.30967C20.0009 8.26919 20.0005 8.22374 20.0002 8.17158C20 8.11929 20 8.06301 20 8H18Z" fill="black" mask="url(#path-11-inside-5_1_62)"/>
<mask id="path-13-inside-6_1_62" fill="white">
<path d="M11 11C10 11 10 11 10 13C10 11 10 11 9 11C10 11 10 11 10 9C10 11 10 11 11 11Z"/>
</mask>
<path d="M11 11C10 11 10 11 10 13C10 11 10 11 9 11C10 11 10 11 10 9C10 11 10 11 11 11Z" fill="white"/>
<path d="M11 10C10.7976 10 10.4785 9.99428 10.2049 10.0551C10.0443 10.0908 9.84893 10.1578 9.65984 10.2939C9.46399 10.4349 9.32503 10.6139 9.23057 10.8028C9.06722 11.1295 9.033 11.5032 9.01716 11.7883C8.99963 12.104 9 12.5123 9 13H11C11 12.4877 11.0004 12.146 11.0141 11.8992C11.0208 11.7788 11.0295 11.7067 11.0369 11.6654C11.0447 11.6222 11.0456 11.6448 11.0194 11.6972C10.9875 11.7611 10.9266 11.8463 10.8284 11.917C10.737 11.9828 10.6589 12.003 10.6388 12.0074C10.6244 12.0106 10.6385 12.006 10.7107 12.0031C10.7818 12.0002 10.8689 12 11 12V10ZM11 13C11 12.5123 11.0004 12.104 10.9828 11.7883C10.967 11.5032 10.9328 11.1295 10.7694 10.8028C10.675 10.6139 10.536 10.4349 10.3402 10.2939C10.1511 10.1578 9.95573 10.0908 9.79506 10.0551C9.52154 9.99428 9.20241 10 9 10V12C9.13108 12 9.21819 12.0002 9.2893 12.0031C9.36149 12.006 9.37558 12.0106 9.36119 12.0074C9.34115 12.003 9.26299 11.9828 9.17156 11.917C9.07337 11.8463 9.01253 11.7611 8.98057 11.6972C8.95437 11.6448 8.95531 11.6222 8.96308 11.6654C8.97051 11.7067 8.97923 11.7788 8.98591 11.8992C8.99963 12.146 9 12.4877 9 13H11ZM9 12C9.20241 12 9.52154 12.0057 9.79506 11.9449C9.95573 11.9092 10.1511 11.8422 10.3402 11.7061C10.536 11.5651 10.675 11.3861 10.7694 11.1972C10.9328 10.8705 10.967 10.4968 10.9828 10.2117C11.0004 9.89602 11 9.4877 11 9H9C9 9.5123 8.99963 9.85398 8.98591 10.1008C8.97923 10.2212 8.97051 10.2933 8.96308 10.3346C8.95531 10.3778 8.95437 10.3552 8.98057 10.3028C9.01253 10.2389 9.07337 10.1537 9.17155 10.083C9.26299 10.0172 9.34115 9.99702 9.36119 9.99257C9.37558 9.98937 9.36149 9.99398 9.2893 9.99693C9.21819 9.99983 9.13108 10 9 10V12ZM9 9C9 9.4877 8.99963 9.89602 9.01716 10.2117C9.033 10.4968 9.06722 10.8705 9.23057 11.1972C9.32503 11.3861 9.46399 11.5651 9.65984 11.7061C9.84893 11.8422 10.0443 11.9092 10.2049 11.9449C10.4785 12.0057 10.7976 12 11 12V10C10.8689 10 10.7818 9.99983 10.7107 9.99693C10.6385 9.99398 10.6244 9.98937 10.6388 9.99257C10.6589 9.99702 10.737 10.0172 10.8284 10.083C10.9266 10.1537 10.9875 10.2389 11.0194 10.3028C11.0456 10.3552 11.0447 10.3778 11.0369 10.3346C11.0295 10.2933 11.0208 10.2212 11.0141 10.1008C11.0004 9.85398 11 9.5123 11 9H9Z" fill="black" mask="url(#path-13-inside-6_1_62)"/>
<mask id="path-15-inside-7_1_62" fill="white">
<path d="M22 4.5C20.5 4.5 20.5 4.5 20.5 6C20.5 4.5 20.5 4.5 19 4.5C20.5 4.5 20.5 4.5 20.5 3C20.5 4.5 20.5 4.5 22 4.5Z"/>
</mask>
<path d="M22 4.5C20.5 4.5 20.5 4.5 20.5 6C20.5 4.5 20.5 4.5 19 4.5C20.5 4.5 20.5 4.5 20.5 3C20.5 4.5 20.5 4.5 22 4.5Z" fill="white"/>
<path d="M22 3.5C21.6494 3.5 21.3017 3.49852 21.0224 3.52956C20.7504 3.55977 20.322 3.63882 19.9804 3.98039C19.6388 4.32197 19.5598 4.75042 19.5296 5.02238C19.4985 5.30172 19.5 5.64943 19.5 6H21.5C21.5 5.60057 21.5015 5.38578 21.5173 5.24325C21.534 5.09334 21.5487 5.24053 21.3946 5.39461C21.2405 5.54869 21.0933 5.53398 21.2432 5.51732C21.3858 5.50149 21.6006 5.5 22 5.5V3.5ZM21.5 6C21.5 5.64943 21.5015 5.30172 21.4704 5.02238C21.4402 4.75042 21.3612 4.32197 21.0196 3.98039C20.678 3.63882 20.2496 3.55977 19.9776 3.52956C19.6983 3.49852 19.3506 3.5 19 3.5V5.5C19.3994 5.5 19.6142 5.50149 19.7568 5.51732C19.9067 5.53398 19.7595 5.54869 19.6054 5.39461C19.4513 5.24053 19.466 5.09334 19.4827 5.24325C19.4985 5.38578 19.5 5.60057 19.5 6H21.5ZM19 5.5C19.3506 5.5 19.6983 5.50149 19.9776 5.47045C20.2496 5.44023 20.678 5.36119 21.0196 5.01961C21.3612 4.67803 21.4402 4.24959 21.4704 3.97762C21.5015 3.69828 21.5 3.35057 21.5 3H19.5C19.5 3.39943 19.4985 3.61422 19.4827 3.75676C19.466 3.90667 19.4513 3.75947 19.6054 3.6054C19.7595 3.45132 19.9067 3.46602 19.7568 3.48268C19.6142 3.49852 19.3994 3.5 19 3.5V5.5ZM19.5 3C19.5 3.35057 19.4985 3.69828 19.5296 3.97762C19.5598 4.24959 19.6388 4.67803 19.9804 5.01961C20.322 5.36119 20.7504 5.44023 21.0224 5.47045C21.3017 5.50149 21.6494 5.5 22 5.5V3.5C21.6006 3.5 21.3858 3.49852 21.2432 3.48268C21.0933 3.46602 21.2405 3.45132 21.3946 3.6054C21.5487 3.75947 21.534 3.90667 21.5173 3.75676C21.5015 3.61422 21.5 3.39943 21.5 3H19.5Z" fill="black" mask="url(#path-15-inside-7_1_62)"/>
<mask id="path-17-inside-8_1_62" fill="white">
<path d="M28 8.5C26.5 8.5 26.5 8.5 26.5 10C26.5 8.5 26.5 8.5 25 8.5C26.5 8.5 26.5 8.5 26.5 7C26.5 8.5 26.5 8.5 28 8.5Z"/>
</mask>
<path d="M28 8.5C26.5 8.5 26.5 8.5 26.5 10C26.5 8.5 26.5 8.5 25 8.5C26.5 8.5 26.5 8.5 26.5 7C26.5 8.5 26.5 8.5 28 8.5Z" fill="white"/>
<path d="M28 7.5C27.6494 7.5 27.3017 7.49852 27.0224 7.52956C26.7504 7.55977 26.322 7.63882 25.9804 7.98039C25.6388 8.32197 25.5598 8.75042 25.5296 9.02238C25.4985 9.30172 25.5 9.64943 25.5 10H27.5C27.5 9.60057 27.5015 9.38578 27.5173 9.24325C27.534 9.09334 27.5487 9.24053 27.3946 9.39461C27.2405 9.54869 27.0933 9.53398 27.2432 9.51732C27.3858 9.50149 27.6006 9.5 28 9.5V7.5ZM27.5 10C27.5 9.64943 27.5015 9.30172 27.4704 9.02238C27.4402 8.75042 27.3612 8.32197 27.0196 7.98039C26.678 7.63882 26.2496 7.55977 25.9776 7.52956C25.6983 7.49852 25.3506 7.5 25 7.5V9.5C25.3994 9.5 25.6142 9.50149 25.7568 9.51732C25.9067 9.53398 25.7595 9.54869 25.6054 9.39461C25.4513 9.24053 25.466 9.09334 25.4827 9.24325C25.4985 9.38578 25.5 9.60057 25.5 10H27.5ZM25 9.5C25.3506 9.5 25.6983 9.50149 25.9776 9.47045C26.2496 9.44023 26.678 9.36119 27.0196 9.01961C27.3612 8.67803 27.4402 8.24959 27.4704 7.97762C27.5015 7.69828 27.5 7.35057 27.5 7H25.5C25.5 7.39943 25.4985 7.61422 25.4827 7.75676C25.466 7.90667 25.4513 7.75947 25.6054 7.6054C25.7595 7.45132 25.9067 7.46602 25.7568 7.48268C25.6142 7.49852 25.3994 7.5 25 7.5V9.5ZM25.5 7C25.5 7.35057 25.4985 7.69828 25.5296 7.97762C25.5598 8.24959 25.6388 8.67803 25.9804 9.01961C26.322 9.36119 26.7504 9.44023 27.0224 9.47045C27.3017 9.50149 27.6494 9.5 28 9.5V7.5C27.6006 7.5 27.3858 7.49852 27.2432 7.48268C27.0933 7.46602 27.2405 7.45132 27.3946 7.6054C27.5487 7.75947 27.534 7.90667 27.5173 7.75676C27.5015 7.61422 27.5 7.39943 27.5 7H25.5Z" fill="black" mask="url(#path-17-inside-8_1_62)"/>
<mask id="path-19-inside-9_1_62" fill="white">
<path d="M17 10C14 10 14 10 14 12C14 10 14 10 11 10C14 10 14 10 14 8C14 10 14 10 17 10Z"/>
</mask>
<path d="M17 10C14 10 14 10 14 12C14 10 14 10 11 10C14 10 14 10 14 8C14 10 14 10 17 10Z" fill="white"/>
<path d="M17 9C16.2664 9 15.6595 8.99934 15.1918 9.03399C14.7528 9.0665 14.2406 9.13775 13.8203 9.41795C13.3163 9.75398 13.1323 10.2486 13.0605 10.6794C12.9967 11.062 13 11.5362 13 12H15C15 11.4638 15.0033 11.188 15.0333 11.0082C15.0552 10.8764 15.0587 10.996 14.9297 11.0821C14.8844 11.1123 14.9347 11.0585 15.3395 11.0285C15.7155 11.0007 16.2336 11 17 11V9ZM15 12C15 11.5362 15.0033 11.062 14.9395 10.6794C14.8677 10.2486 14.6837 9.75398 14.1797 9.41795C13.7594 9.13775 13.2472 9.0665 12.8082 9.03399C12.3405 8.99934 11.7336 9 11 9V11C11.7664 11 12.2845 11.0007 12.6605 11.0285C13.0653 11.0585 13.1156 11.1123 13.0703 11.0821C12.9413 10.996 12.9448 10.8764 12.9667 11.0082C12.9967 11.188 13 11.4638 13 12H15ZM11 11C11.7336 11 12.3405 11.0007 12.8082 10.966C13.2472 10.9335 13.7594 10.8623 14.1797 10.5821C14.6837 10.246 14.8677 9.75139 14.9395 9.32065C15.0033 8.93804 15 8.46375 15 8H13C13 8.53625 12.9967 8.81196 12.9667 8.99185C12.9448 9.12361 12.9413 9.00398 13.0703 8.91795C13.1156 8.88775 13.0653 8.9415 12.6605 8.97149C12.2845 8.99934 11.7664 9 11 9V11ZM13 8C13 8.46375 12.9967 8.93804 13.0605 9.32065C13.1323 9.75139 13.3163 10.246 13.8203 10.5821C14.2406 10.8623 14.7528 10.9335 15.1918 10.966C15.6595 11.0007 16.2664 11 17 11V9C16.2336 9 15.7155 8.99934 15.3395 8.97149C14.9347 8.9415 14.8844 8.88775 14.9297 8.91795C15.0587 9.00398 15.0552 9.12361 15.0333 8.99185C15.0033 8.81196 15 8.53625 15 8H13Z" fill="black" mask="url(#path-19-inside-9_1_62)"/>
<mask id="path-21-inside-10_1_62" fill="white">
<path d="M14 21C12 21 12 21 12 23C12 21 12 21 10 21C12 21 12 21 12 19C12 21 12 21 14 21Z"/>
</mask>
<path d="M14 21C12 21 12 21 12 23C12 21 12 21 10 21C12 21 12 21 12 19C12 21 12 21 14 21Z" fill="white"/>
<path d="M14 20C13.5244 20 13.083 19.9985 12.7333 20.0374C12.391 20.0754 11.9157 20.1701 11.5429 20.5429C11.1701 20.9157 11.0754 21.391 11.0374 21.7333C10.9985 22.083 11 22.5244 11 23H13C13 22.4756 13.0015 22.167 13.0251 21.9542C13.0496 21.734 13.0799 21.8343 12.9571 21.9571C12.8343 22.0799 12.734 22.0496 12.9542 22.0251C13.167 22.0015 13.4756 22 14 22V20ZM13 23C13 22.5244 13.0015 22.083 12.9626 21.7333C12.9246 21.391 12.8299 20.9157 12.4571 20.5429C12.0843 20.1701 11.609 20.0754 11.2667 20.0374C10.917 19.9985 10.4756 20 10 20V22C10.5244 22 10.833 22.0015 11.0458 22.0251C11.266 22.0496 11.1657 22.0799 11.0429 21.9571C10.9201 21.8343 10.9504 21.734 10.9749 21.9542C10.9985 22.167 11 22.4756 11 23H13ZM10 22C10.4756 22 10.917 22.0015 11.2667 21.9626C11.609 21.9246 12.0843 21.8299 12.4571 21.4571C12.8299 21.0843 12.9246 20.609 12.9626 20.2667C13.0015 19.917 13 19.4756 13 19H11C11 19.5244 10.9985 19.833 10.9749 20.0458C10.9504 20.266 10.9201 20.1657 11.0429 20.0429C11.1657 19.9201 11.266 19.9504 11.0458 19.9749C10.833 19.9985 10.5244 20 10 20V22ZM11 19C11 19.4756 10.9985 19.917 11.0374 20.2667C11.0754 20.609 11.1701 21.0843 11.5429 21.4571C11.9157 21.8299 12.391 21.9246 12.7333 21.9626C13.083 22.0015 13.5244 22 14 22V20C13.4756 20 13.167 19.9985 12.9542 19.9749C12.734 19.9504 12.8343 19.9201 12.9571 20.0429C13.0799 20.1657 13.0496 20.266 13.0251 20.0458C13.0015 19.833 13 19.5244 13 19H11Z" fill="black" mask="url(#path-21-inside-10_1_62)"/>
<path d="M15 24.9566C15.007 24.964 15.0142 24.9713 15.0214 24.9786C15.0287 24.9858 15.036 24.993 15.0434 25C15.036 25.007 15.0287 25.0142 15.0214 25.0215C15.0142 25.0287 15.007 25.036 15 25.0434C14.993 25.036 14.9858 25.0287 14.9786 25.0215C14.9713 25.0142 14.964 25.007 14.9566 25C14.964 24.993 14.9713 24.9858 14.9786 24.9786C14.9858 24.9713 14.993 24.964 15 24.9566Z" fill="white" stroke="black"/>
<mask id="path-24-inside-11_1_62" fill="white">
<path d="M24 26C22 26 22 26 22 29C22 26 22 26 20 26C22 26 22 26 22 23C22 26 22 26 24 26Z"/>
</mask>
<path d="M24 26C22 26 22 26 22 29C22 26 22 26 20 26C22 26 22 26 22 23C22 26 22 26 24 26Z" fill="white"/>
<path d="M24 25C23.5362 25 23.062 24.9967 22.6794 25.0605C22.2486 25.1323 21.754 25.3163 21.418 25.8203C21.1377 26.2406 21.0665 26.7528 21.034 27.1918C20.9993 27.6595 21 28.2664 21 29H23C23 28.2336 23.0007 27.7155 23.0285 27.3395C23.0585 26.9347 23.1123 26.8844 23.082 26.9297C22.996 27.0587 22.8764 27.0552 23.0081 27.0333C23.188 27.0033 23.4638 27 24 27V25ZM23 29C23 28.2664 23.0007 27.6595 22.966 27.1918C22.9335 26.7528 22.8623 26.2406 22.582 25.8203C22.246 25.3163 21.7514 25.1323 21.3206 25.0605C20.938 24.9967 20.4638 25 20 25V27C20.5362 27 20.812 27.0033 20.9919 27.0333C21.1236 27.0552 21.004 27.0587 20.918 26.9297C20.8877 26.8844 20.9415 26.9347 20.9715 27.3395C20.9993 27.7155 21 28.2336 21 29H23ZM20 27C20.4638 27 20.938 27.0033 21.3206 26.9395C21.7514 26.8677 22.246 26.6837 22.5821 26.1797C22.8623 25.7594 22.9335 25.2472 22.966 24.8082C23.0007 24.3405 23 23.7336 23 23H21C21 23.7664 20.9993 24.2845 20.9715 24.6605C20.9415 25.0653 20.8877 25.1156 20.9179 25.0703C21.004 24.9413 21.1236 24.9448 20.9919 24.9667C20.812 24.9967 20.5362 25 20 25V27ZM21 23C21 23.7336 20.9993 24.3405 21.034 24.8082C21.0665 25.2472 21.1377 25.7594 21.4179 26.1797C21.754 26.6837 22.2486 26.8677 22.6794 26.9395C23.062 27.0033 23.5362 27 24 27V25C23.4638 25 23.188 24.9967 23.0081 24.9667C22.8764 24.9448 22.996 24.9413 23.0821 25.0703C23.1123 25.1156 23.0585 25.0653 23.0285 24.6605C23.0007 24.2845 23 23.7664 23 23H21Z" fill="black" mask="url(#path-24-inside-11_1_62)"/>
<mask id="path-26-inside-12_1_62" fill="white">
<path d="M12 15C10 15 10 15 10 17C10 15 10 15 8 15C10 15 10 15 10 13C10 15 10 15 12 15Z"/>
</mask>
<path d="M12 15C10 15 10 15 10 17C10 15 10 15 8 15C10 15 10 15 10 13C10 15 10 15 12 15Z" fill="white"/>
<path d="M12 14C11.5244 14 11.083 13.9985 10.7333 14.0374C10.391 14.0754 9.91572 14.1701 9.54289 14.5429C9.17007 14.9157 9.0754 15.391 9.03737 15.7333C8.99852 16.083 9 16.5244 9 17H11C11 16.4756 11.0015 16.167 11.0251 15.9542C11.0496 15.734 11.0799 15.8343 10.9571 15.9571C10.8343 16.0799 10.734 16.0496 10.9542 16.0251C11.167 16.0015 11.4756 16 12 16V14ZM11 17C11 16.5244 11.0015 16.083 10.9626 15.7333C10.9246 15.391 10.8299 14.9157 10.4571 14.5429C10.0843 14.1701 9.60896 14.0754 9.26668 14.0374C8.91703 13.9985 8.47557 14 8 14V16C8.52443 16 8.83297 16.0015 9.04582 16.0251C9.26604 16.0496 9.16572 16.0799 9.04289 15.9571C8.92007 15.8343 8.9504 15.734 8.97487 15.9542C8.99852 16.167 9 16.4756 9 17H11ZM8 16C8.47557 16 8.91703 16.0015 9.26668 15.9626C9.60896 15.9246 10.0843 15.8299 10.4571 15.4571C10.8299 15.0843 10.9246 14.609 10.9626 14.2667C11.0015 13.917 11 13.4756 11 13H9C9 13.5244 8.99852 13.833 8.97487 14.0458C8.9504 14.266 8.92007 14.1657 9.04289 14.0429C9.16572 13.9201 9.26604 13.9504 9.04582 13.9749C8.83297 13.9985 8.52443 14 8 14V16ZM9 13C9 13.4756 8.99852 13.917 9.03737 14.2667C9.0754 14.609 9.17007 15.0843 9.54289 15.4571C9.91572 15.8299 10.391 15.9246 10.7333 15.9626C11.083 16.0015 11.5244 16 12 16V14C11.4756 14 11.167 13.9985 10.9542 13.9749C10.734 13.9504 10.8343 13.9201 10.9571 14.0429C11.0799 14.1657 11.0496 14.266 11.0251 14.0458C11.0015 13.833 11 13.5244 11 13H9Z" fill="black" mask="url(#path-26-inside-12_1_62)"/>
<mask id="path-28-inside-13_1_62" fill="white">
<path d="M33 17.5C31 17.5 31 17.5 31 21C31 17.5 31 17.5 29 17.5C31 17.5 31 17.5 31 14C31 17.5 31 17.5 33 17.5Z"/>
</mask>
<path d="M33 17.5C31 17.5 31 17.5 31 21C31 17.5 31 17.5 29 17.5C31 17.5 31 17.5 31 14C31 17.5 31 17.5 33 17.5Z" fill="white"/>
<path d="M33 16.5C32.542 16.5 32.0515 16.4956 31.6529 16.5731C31.1774 16.6655 30.6917 16.8989 30.3818 17.4414C30.1325 17.8775 30.0651 18.4123 30.0333 18.9132C29.9995 19.4447 30 20.139 30 21H32C32 20.111 32.0005 19.4928 32.0292 19.0399C32.0434 18.8171 32.0629 18.6632 32.085 18.556C32.1072 18.448 32.1254 18.4212 32.1182 18.4336C32.0583 18.5386 31.9476 18.5532 32.0346 18.5363C32.1985 18.5044 32.458 18.5 33 18.5V16.5ZM32 21C32 20.139 32.0005 19.4447 31.9667 18.9132C31.9349 18.4123 31.8675 17.8775 31.6182 17.4414C31.3083 16.8989 30.8226 16.6655 30.3471 16.5731C29.9485 16.4956 29.458 16.5 29 16.5V18.5C29.542 18.5 29.8015 18.5044 29.9654 18.5363C30.0524 18.5532 29.9417 18.5386 29.8818 18.4336C29.8746 18.4212 29.8928 18.448 29.915 18.556C29.9371 18.6632 29.9566 18.8171 29.9708 19.0399C29.9995 19.4928 30 20.111 30 21H32ZM29 18.5C29.458 18.5 29.9485 18.5044 30.3471 18.4269C30.8226 18.3345 31.3083 18.1011 31.6182 17.5586C31.8675 17.1225 31.9349 16.5877 31.9667 16.0868C32.0005 15.5553 32 14.861 32 14H30C30 14.889 29.9995 15.5072 29.9708 15.9601C29.9566 16.1829 29.9371 16.3368 29.915 16.444C29.8928 16.552 29.8746 16.5788 29.8818 16.5664C29.9417 16.4614 30.0524 16.4468 29.9654 16.4637C29.8015 16.4956 29.542 16.5 29 16.5V18.5ZM30 14C30 14.861 29.9995 15.5553 30.0333 16.0868C30.0651 16.5877 30.1325 17.1225 30.3818 17.5586C30.6917 18.1011 31.1774 18.3345 31.6529 18.4269C32.0515 18.5044 32.542 18.5 33 18.5V16.5C32.458 16.5 32.1985 16.4956 32.0346 16.4637C31.9476 16.4468 32.0583 16.4614 32.1182 16.5664C32.1254 16.5788 32.1072 16.552 32.085 16.444C32.0629 16.3368 32.0434 16.1829 32.0292 15.9601C32.0005 15.5072 32 14.889 32 14H30Z" fill="black" mask="url(#path-28-inside-13_1_62)"/>
<mask id="path-30-inside-14_1_62" fill="white">
<path d="M31 23C28 23 28 23 28 25C28 23 28 23 25 23C28 23 28 23 28 21C28 23 28 23 31 23Z"/>
</mask>
<path d="M31 23C28 23 28 23 28 25C28 23 28 23 25 23C28 23 28 23 28 21C28 23 28 23 31 23Z" fill="white"/>
<path d="M31 22C30.2664 22 29.6595 21.9993 29.1918 22.034C28.7528 22.0665 28.2406 22.1377 27.8203 22.418C27.3163 22.754 27.1323 23.2486 27.0605 23.6794C26.9967 24.062 27 24.5362 27 25H29C29 24.4638 29.0033 24.188 29.0333 24.0082C29.0552 23.8764 29.0587 23.996 28.9297 24.0821C28.8844 24.1123 28.9347 24.0585 29.3395 24.0285C29.7155 24.0007 30.2336 24 31 24V22ZM29 25C29 24.5362 29.0033 24.062 28.9395 23.6794C28.8677 23.2486 28.6837 22.754 28.1797 22.418C27.7594 22.1377 27.2472 22.0665 26.8082 22.034C26.3405 21.9993 25.7336 22 25 22V24C25.7664 24 26.2845 24.0007 26.6605 24.0285C27.0653 24.0585 27.1156 24.1123 27.0703 24.0821C26.9413 23.996 26.9448 23.8764 26.9667 24.0082C26.9967 24.188 27 24.4638 27 25H29ZM25 24C25.7336 24 26.3405 24.0007 26.8082 23.966C27.2472 23.9335 27.7594 23.8623 28.1797 23.5821C28.6837 23.246 28.8677 22.7514 28.9395 22.3207C29.0033 21.938 29 21.4638 29 21H27C27 21.5362 26.9967 21.812 26.9667 21.9919C26.9448 22.1236 26.9413 22.004 27.0703 21.918C27.1156 21.8877 27.0653 21.9415 26.6605 21.9715C26.2845 21.9993 25.7664 22 25 22V24ZM27 21C27 21.4638 26.9967 21.938 27.0605 22.3207C27.1323 22.7514 27.3163 23.246 27.8203 23.5821C28.2406 23.8623 28.7528 23.9335 29.1918 23.966C29.6595 24.0007 30.2664 24 31 24V22C30.2336 22 29.7155 21.9993 29.3395 21.9715C28.9347 21.9415 28.8844 21.8877 28.9297 21.918C29.0587 22.004 29.0552 22.1236 29.0333 21.9919C29.0033 21.812 29 21.5362 29 21H27Z" fill="black" mask="url(#path-30-inside-14_1_62)"/>
<mask id="path-32-inside-15_1_62" fill="white">
<path d="M18 6C16 6 16 6 16 8C16 6 16 6 14 6C16 6 16 6 16 4C16 6 16 6 18 6Z"/>
</mask>
<path d="M18 6C16 6 16 6 16 8C16 6 16 6 14 6C16 6 16 6 16 4C16 6 16 6 18 6Z" fill="white"/>
<path d="M18 5C17.5244 5 17.083 4.99852 16.7333 5.03737C16.391 5.0754 15.9157 5.17007 15.5429 5.5429C15.1701 5.91572 15.0754 6.39104 15.0374 6.73332C14.9985 7.08297 15 7.52443 15 8H17C17 7.47557 17.0015 7.16703 17.0251 6.95418C17.0496 6.73396 17.0799 6.83428 16.9571 6.95711C16.8343 7.07994 16.734 7.04961 16.9542 7.02514C17.167 7.00149 17.4756 7 18 7V5ZM17 8C17 7.52443 17.0015 7.08297 16.9626 6.73332C16.9246 6.39104 16.8299 5.91572 16.4571 5.5429C16.0843 5.17007 15.609 5.0754 15.2667 5.03737C14.917 4.99852 14.4756 5 14 5V7C14.5244 7 14.833 7.00149 15.0458 7.02514C15.266 7.04961 15.1657 7.07994 15.0429 6.95711C14.9201 6.83428 14.9504 6.73396 14.9749 6.95418C14.9985 7.16703 15 7.47557 15 8H17ZM14 7C14.4756 7 14.917 7.00149 15.2667 6.96264C15.609 6.92461 16.0843 6.82994 16.4571 6.45711C16.8299 6.08428 16.9246 5.60896 16.9626 5.26668C17.0015 4.91703 17 4.47557 17 4H15C15 4.52443 14.9985 4.83297 14.9749 5.04582C14.9504 5.26604 14.9201 5.16572 15.0429 5.0429C15.1657 4.92007 15.266 4.9504 15.0458 4.97487C14.833 4.99852 14.5244 5 14 5V7ZM15 4C15 4.47557 14.9985 4.91703 15.0374 5.26668C15.0754 5.60896 15.1701 6.08428 15.5429 6.45711C15.9157 6.82994 16.391 6.92461 16.7333 6.96264C17.083 7.00149 17.5244 7 18 7V5C17.4756 5 17.167 4.99852 16.9542 4.97487C16.734 4.9504 16.8343 4.92007 16.9571 5.0429C17.0799 5.16572 17.0496 5.26604 17.0251 5.04582C17.0015 4.83297 17 4.52443 17 4H15Z" fill="black" mask="url(#path-32-inside-15_1_62)"/>
<mask id="path-34-inside-16_1_62" fill="white">
<path d="M18 6C16 6 16 6 16 8C16 6 16 6 14 6C16 6 16 6 16 4C16 6 16 6 18 6Z"/>
</mask>
<path d="M18 6C16 6 16 6 16 8C16 6 16 6 14 6C16 6 16 6 16 4C16 6 16 6 18 6Z" fill="white"/>
<path d="M18 5C17.5244 5 17.083 4.99852 16.7333 5.03737C16.391 5.0754 15.9157 5.17007 15.5429 5.5429C15.1701 5.91572 15.0754 6.39104 15.0374 6.73332C14.9985 7.08297 15 7.52443 15 8H17C17 7.47557 17.0015 7.16703 17.0251 6.95418C17.0496 6.73396 17.0799 6.83428 16.9571 6.95711C16.8343 7.07994 16.734 7.04961 16.9542 7.02514C17.167 7.00149 17.4756 7 18 7V5ZM17 8C17 7.52443 17.0015 7.08297 16.9626 6.73332C16.9246 6.39104 16.8299 5.91572 16.4571 5.5429C16.0843 5.17007 15.609 5.0754 15.2667 5.03737C14.917 4.99852 14.4756 5 14 5V7C14.5244 7 14.833 7.00149 15.0458 7.02514C15.266 7.04961 15.1657 7.07994 15.0429 6.95711C14.9201 6.83428 14.9504 6.73396 14.9749 6.95418C14.9985 7.16703 15 7.47557 15 8H17ZM14 7C14.4756 7 14.917 7.00149 15.2667 6.96264C15.609 6.92461 16.0843 6.82994 16.4571 6.45711C16.8299 6.08428 16.9246 5.60896 16.9626 5.26668C17.0015 4.91703 17 4.47557 17 4H15C15 4.52443 14.9985 4.83297 14.9749 5.04582C14.9504 5.26604 14.9201 5.16572 15.0429 5.0429C15.1657 4.92007 15.266 4.9504 15.0458 4.97487C14.833 4.99852 14.5244 5 14 5V7ZM15 4C15 4.47557 14.9985 4.91703 15.0374 5.26668C15.0754 5.60896 15.1701 6.08428 15.5429 6.45711C15.9157 6.82994 16.391 6.92461 16.7333 6.96264C17.083 7.00149 17.5244 7 18 7V5C17.4756 5 17.167 4.99852 16.9542 4.97487C16.734 4.9504 16.8343 4.92007 16.9571 5.0429C17.0799 5.16572 17.0496 5.26604 17.0251 5.04582C17.0015 4.83297 17 4.52443 17 4H15Z" fill="black" mask="url(#path-34-inside-16_1_62)"/>
<mask id="path-36-inside-17_1_62" fill="white">
<path d="M31 12.5C29.5 12.5 29.5 12.5 29.5 14C29.5 12.5 29.5 12.5 28 12.5C29.5 12.5 29.5 12.5 29.5 11C29.5 12.5 29.5 12.5 31 12.5Z"/>
</mask>
<path d="M31 12.5C29.5 12.5 29.5 12.5 29.5 14C29.5 12.5 29.5 12.5 28 12.5C29.5 12.5 29.5 12.5 29.5 11C29.5 12.5 29.5 12.5 31 12.5Z" fill="white"/>
<path d="M31 11.5C30.6494 11.5 30.3017 11.4985 30.0224 11.5296C29.7504 11.5598 29.322 11.6388 28.9804 11.9804C28.6388 12.322 28.5598 12.7504 28.5296 13.0224C28.4985 13.3017 28.5 13.6494 28.5 14H30.5C30.5 13.6006 30.5015 13.3858 30.5173 13.2432C30.534 13.0933 30.5487 13.2405 30.3946 13.3946C30.2405 13.5487 30.0933 13.534 30.2432 13.5173C30.3858 13.5015 30.6006 13.5 31 13.5V11.5ZM30.5 14C30.5 13.6494 30.5015 13.3017 30.4704 13.0224C30.4402 12.7504 30.3612 12.322 30.0196 11.9804C29.678 11.6388 29.2496 11.5598 28.9776 11.5296C28.6983 11.4985 28.3506 11.5 28 11.5V13.5C28.3994 13.5 28.6142 13.5015 28.7568 13.5173C28.9067 13.534 28.7595 13.5487 28.6054 13.3946C28.4513 13.2405 28.466 13.0933 28.4827 13.2432C28.4985 13.3858 28.5 13.6006 28.5 14H30.5ZM28 13.5C28.3506 13.5 28.6983 13.5015 28.9776 13.4704C29.2496 13.4402 29.678 13.3612 30.0196 13.0196C30.3612 12.678 30.4402 12.2496 30.4704 11.9776C30.5015 11.6983 30.5 11.3506 30.5 11H28.5C28.5 11.3994 28.4985 11.6142 28.4827 11.7568C28.466 11.9067 28.4513 11.7595 28.6054 11.6054C28.7595 11.4513 28.9067 11.466 28.7568 11.4827C28.6142 11.4985 28.3994 11.5 28 11.5V13.5ZM28.5 11C28.5 11.3506 28.4985 11.6983 28.5296 11.9776C28.5598 12.2496 28.6388 12.678 28.9804 13.0196C29.322 13.3612 29.7504 13.4402 30.0224 13.4704C30.3017 13.5015 30.6494 13.5 31 13.5V11.5C30.6006 11.5 30.3858 11.4985 30.2432 11.4827C30.0933 11.466 30.2405 11.4513 30.3946 11.6054C30.5487 11.7595 30.534 11.9067 30.5173 11.7568C30.5015 11.6142 30.5 11.3994 30.5 11H28.5Z" fill="black" mask="url(#path-36-inside-17_1_62)"/>
</g>
<defs>
<filter id="filter0_d_1_62" x="0" y="0" width="39" height="39" filterUnits="userSpaceOnUse" color-interpolation-filters="sRGB">
<feFlood flood-opacity="0" result="BackgroundImageFix"/>
<feColorMatrix in="SourceAlpha" type="matrix" values="0 0 0 0 0 0 0 0 0 0 0 0 0 0 0 0 0 0 127 0" result="hardAlpha"/>
<feOffset dy="4"/>
<feGaussianBlur stdDeviation="2"/>
<feComposite in2="hardAlpha" operator="out"/>
<feColorMatrix type="matrix" values="0 0 0 0 0 0 0 0 0 0 0 0 0 0 0 0 0 0 0.25 0"/>
<feBlend mode="normal" in2="BackgroundImageFix" result="effect1_dropShadow_1_62"/>
<feBlend mode="normal" in="SourceGraphic" in2="effect1_dropShadow_1_62" result="shape"/>
</filter>
</defs>
</svg>
